HIERARCHY
ROOT Hips
{
	OFFSET 0.000000 0.000000 0.000000 
	CHANNELS 6 Xposition Yposition Zposition Zrotation Yrotation Xrotation
	JOINT LeftUpLeg
	{
		OFFSET 1.363060 -1.794630 0.839290 
		CHANNELS 3 Zrotation Yrotation Xrotation
		JOINT LeftLeg
		{
			OFFSET 2.448110 -6.726130 0.000000 
			CHANNELS 3 Zrotation Yrotation Xrotation
			JOINT LeftFoot
			{
				OFFSET 2.562200 -7.039590 0.000000 
				CHANNELS 3 Zrotation Yrotation Xrotation
				JOINT LeftToeBase
				{
					OFFSET 0.157640 -0.433110 2.322550 
					CHANNELS 3 Zrotation Yrotation Xrotation
					End Site
					{
						OFFSET 0.000000 0.000000 0.000000 
					}
				}
			}
		}
	}
	JOINT RightUpLeg
	{
		OFFSET -1.305520 -1.794630 0.839290 
		CHANNELS 3 Zrotation Yrotation Xrotation
		JOINT RightLeg
		{
			OFFSET -2.542530 -6.985550 0.000000 
			CHANNELS 3 Zrotation Yrotation Xrotation
			JOINT RightFoot
			{
				OFFSET -2.568260 -7.056230 0.000000 
				CHANNELS 3 Zrotation Yrotation Xrotation
				JOINT RightToeBase
				{
					OFFSET -0.164730 -0.452590 2.363150 
					CHANNELS 3 Zrotation Yrotation Xrotation
					End Site
					{
						OFFSET 0.000000 0.000000 0.000000 
					}
				}
			}
		}
	}
	JOINT Spine
	{
		OFFSET 0.028270 2.035590 -0.193380 
		CHANNELS 3 Zrotation Yrotation Xrotation
		JOINT Spine1
		{
			OFFSET 0.056720 2.048850 -0.042750 
			CHANNELS 3 Zrotation Yrotation Xrotation
			JOINT Neck1
			{
				OFFSET -0.054170 1.746240 0.172020 
				CHANNELS 3 Zrotation Yrotation Xrotation
				JOINT Head
				{
					OFFSET 0.104070 1.761360 -0.123970 
					CHANNELS 3 Zrotation Yrotation Xrotation
					End Site
					{
						OFFSET 0.000000 0.000000 0.000000 
					}
				}
			}
			JOINT LeftArm
			{
				OFFSET 3.362410 1.200890 -0.311210 
				CHANNELS 3 Zrotation Yrotation Xrotation
				JOINT LeftForeArm
				{
					OFFSET 4.983000 -0.000000 -0.000000 
					CHANNELS 3 Zrotation Yrotation Xrotation
					JOINT LeftHand
					{
						OFFSET 3.483560 -0.000000 -0.000000 
						CHANNELS 3 Zrotation Yrotation Xrotation
						JOINT LeftHandIndex1
						{
							OFFSET 0.715260 -0.000000 -0.000000 
							CHANNELS 3 Zrotation Yrotation Xrotation
							End Site
							{
								OFFSET 0.000000 0.000000 0.000000 
							}
						}
					}
				}
			}
			JOINT RightArm
			{
				OFFSET -3.136600 1.374050 -0.404650 
				CHANNELS 3 Zrotation Yrotation Xrotation
				JOINT RightForeArm
				{
					OFFSET -5.241900 -0.000000 -0.000000 
					CHANNELS 3 Zrotation Yrotation Xrotation
					JOINT RightHand
					{
						OFFSET -3.444170 -0.000000 -0.000000 
						CHANNELS 3 Zrotation Yrotation Xrotation
						JOINT RightHandIndex1
						{
							OFFSET -0.622530 -0.000000 -0.000000 
							CHANNELS 3 Zrotation Yrotation Xrotation
							End Site
							{
								OFFSET 0.000000 0.000000 0.000000 
							}
						}
					}
				}
			}
		}
	}
}
MOTION
Frames: 13
Frame Time: 0.041667
6.853357 16.856244 47.258972 178.269316 -3.318271 -150.308569 -3.345759 -6.805376 -14.405124 2.715392 12.845891 37.394798 4.456889 1.896370 48.196759 0.004700 -0.441800 -1.213900 12.696029 -4.581411 -56.499497 -9.763204 -19.093912 56.919135 3.448075 -10.570063 2.127831 -3.504700 11.470400 -33.883400 1.052281 -3.685360 -4.772480 4.265448 -2.104996 -9.037346 2.325571 5.662830 -2.764052 -0.699900 2.634400 3.275900 -75.341443 5.336925 54.538372 129.429681 -49.493756 -97.052483 0.036558 -0.167436 -2.853311 -7.125000 0.000000 0.000000 87.348693 -35.007285 22.892572 -53.474183 51.499848 -38.020181 2.444622 1.405314 -5.629238 7.125000 0.000000 0.000000 
6.818664 16.903723 46.863238 178.656964 -3.048659 -151.046324 -3.925512 -6.035762 -15.755809 4.419324 14.139385 41.997791 3.584427 2.509402 44.922036 0.005100 -0.460900 -1.266600 13.016025 -4.852121 -54.595171 -9.665214 -18.877349 56.775233 3.293092 -10.264657 1.632380 -3.522900 11.496900 -33.974700 1.048571 -3.118833 -4.629647 3.950366 -1.867700 -9.176703 1.892548 5.661681 -3.644669 -1.022200 2.643200 3.099300 -76.064392 6.364652 53.180803 123.211898 -52.514477 -92.352760 -0.036207 -0.183692 -3.340753 -7.125000 0.000000 0.000000 88.136773 -31.873757 22.177865 -52.736107 50.965069 -37.149981 2.474001 1.400889 -5.169969 7.125000 0.000000 0.000000 
6.780414 16.934412 46.477400 179.516971 -2.082452 -151.410699 -4.346614 -4.592988 -17.967434 6.165361 15.331902 46.762378 2.973728 2.538749 42.216705 0.029400 -1.107700 -3.045200 13.455809 -4.431283 -52.877624 -9.460432 -18.626236 56.326312 3.364217 -10.413338 1.475558 -3.764300 11.840000 -35.168300 1.051324 -2.289151 -4.508945 3.758472 -1.505138 -9.245855 1.556655 5.705885 -4.227354 -1.182100 2.688600 2.579200 -77.272564 7.323602 51.263110 115.455109 -55.268220 -86.484731 -0.141032 -0.222263 -3.690963 -7.125000 0.000000 0.000000 88.298677 -28.658429 22.176350 -51.540510 50.270835 -35.850544 2.524061 1.393514 -5.081418 7.125000 0.000000 0.000000 
6.742275 16.998237 46.066876 -179.788466 -1.788558 -152.029326 -4.346195 -3.989430 -19.909366 7.629687 16.321074 51.367282 2.771928 1.137766 39.271829 0.285400 -3.435800 -9.494600 13.885828 -4.612553 -50.779868 -9.194120 -18.309184 55.781406 2.986732 -9.689111 1.222545 -3.707800 11.761100 -34.892000 1.061270 -1.544800 -4.385913 3.401229 -0.832675 -9.369868 1.239318 5.651617 -4.713999 -1.340300 2.684000 2.188400 -78.559083 8.072669 49.390959 105.687003 -57.371091 -79.088023 -0.373017 -0.211451 -3.600138 -7.125000 0.000000 0.000000 88.454585 -25.412139 22.319576 -50.390022 49.574991 -34.590521 2.576427 1.407612 -5.606327 7.125000 0.000000 0.000000 
6.719592 17.027925 45.658355 -179.157302 -1.144979 -152.405869 -4.342244 -3.144475 -22.745241 9.078387 17.222642 56.000621 2.748365 -0.701398 35.836872 0.152100 -2.513300 -6.926600 14.218782 -4.551818 -48.953726 -8.943245 -17.980565 55.124897 3.197017 -10.122497 0.838823 -4.195000 12.415500 -37.218100 1.038061 -0.784721 -4.305411 3.013098 -0.445806 -9.436797 1.096036 5.487482 -4.871551 -1.432300 2.613500 2.032900 -79.770780 8.398644 47.703964 92.323062 -58.137638 -68.743987 -0.644091 -0.301962 -4.489678 -7.125000 0.000000 0.000000 88.419891 -21.938406 23.286189 -49.336334 48.914478 -33.375276 2.643306 1.303901 -6.880401 7.125000 0.000000 0.000000 
6.688458 17.028815 45.264733 -178.588044 -0.572128 -152.789525 -4.249324 -2.507353 -25.292624 10.677174 18.059579 60.594423 2.555008 -1.512607 32.433488 0.212100 -2.964800 -8.180900 14.467459 -4.482025 -47.222865 -8.725492 -17.698936 54.611050 3.171044 -10.092704 0.535133 -4.425200 12.705600 -38.276400 1.028155 -0.089115 -4.216943 2.665950 -0.090713 -9.532061 0.867709 5.381815 -5.166377 -1.544900 2.580300 1.781300 -80.765166 9.029989 46.407153 80.588723 -57.183770 -59.061403 -0.835811 -0.312602 -5.036189 -7.125000 0.000000 0.000000 88.188032 -18.655830 24.043356 -48.437959 48.315541 -32.377388 2.686919 1.248498 -7.319050 7.125000 0.000000 0.000000 
6.658102 17.017028 44.869443 -178.093125 0.059991 -153.115931 -4.093244 -1.915046 -28.036921 12.244265 18.786709 65.054082 2.434263 -2.289480 29.001583 0.265200 -3.312800 -9.150800 14.618758 -4.381870 -45.535864 -8.523534 -17.428994 54.131451 3.149912 -10.075782 0.143336 -4.659200 12.989400 -39.328900 1.010390 0.608668 -4.140699 2.311157 0.264925 -9.609296 0.669840 5.250628 -5.376953 -1.637200 2.532600 1.587300 -81.588373 9.616347 44.914838 69.385483 -55.225460 -49.204674 -0.970470 -0.224213 -5.667803 -7.125000 0.000000 0.000000 87.783005 -15.419638 25.077061 -47.780325 47.818400 -31.616717 2.717466 1.179482 -7.561256 7.125000 0.000000 0.000000 
6.628080 16.993011 44.470262 -177.691523 0.739046 -153.417012 -3.907381 -1.360440 -30.909920 13.736636 19.395703 69.264622 2.369589 -2.989343 25.570952 0.318100 -3.625500 -10.025300 14.656145 -4.275820 -43.862515 -8.340292 -17.175387 53.704728 3.082615 -9.978004 -0.367956 -4.859700 13.224000 -40.213000 0.982765 1.301313 -4.073767 1.930013 0.617743 -9.644780 0.494461 5.098293 -5.505663 -1.714500 2.471700 1.453900 -82.110206 10.204293 43.019701 59.202029 -52.744284 -40.078258 -1.086822 -0.067294 -6.268502 -7.125000 0.000000 0.000000 87.261763 -12.260260 26.341430 -47.516207 47.494008 -31.233334 2.726377 1.104718 -7.485393 7.125000 0.000000 0.000000 
6.598058 16.958652 44.066077 -177.371995 1.495000 -153.694245 -3.713795 -0.805422 -33.896690 15.122616 19.891624 73.135135 2.343785 -3.578213 22.312967 0.347600 -3.788200 -10.481500 14.580093 -4.155530 -42.170645 -8.148248 -16.921871 53.240003 2.988866 -9.839534 -0.918454 -5.034600 13.422700 -40.972100 0.944756 1.996707 -4.015991 1.522591 0.971759 -9.635391 0.333358 4.938756 -5.559016 -1.781600 2.403600 1.376700 -82.242773 10.931948 40.899184 50.373339 -49.974972 -32.369635 -1.210675 0.108424 -6.652815 -7.125000 0.000000 0.000000 86.678730 -9.226091 27.803057 -47.822647 47.421603 -31.388606 2.708528 1.032854 -7.104227 7.125000 0.000000 0.000000 
6.567592 16.916399 43.655109 -177.117146 2.310239 -153.972386 -3.512829 -0.247604 -36.948522 16.367712 20.284582 76.582894 2.349243 -4.072447 19.343323 0.376600 -3.941200 -10.911300 14.400676 -4.027375 -40.420322 -7.934177 -16.661512 52.704811 2.837229 -9.604868 -1.482724 -5.167100 13.569500 -41.539500 0.896239 2.684589 -3.965884 1.076957 1.322273 -9.585814 0.181338 4.785428 -5.548502 -1.840500 2.334800 1.348800 -81.921456 11.969925 38.893490 43.142815 -47.162927 -26.364411 -1.336744 0.289370 -6.629226 -7.125000 0.000000 0.000000 86.107024 -6.355174 29.407933 -48.862787 47.663248 -32.236027 2.661841 0.969811 -6.528177 7.125000 0.000000 0.000000 
6.536346 16.870032 43.235134 -176.897358 3.173545 -154.264993 -3.301907 0.325283 -40.024983 17.440504 20.589532 79.525265 2.379680 -4.493347 16.765057 0.380100 -3.959200 -10.962000 14.137131 -3.892044 -38.580758 -7.683238 -16.385059 52.049436 2.651712 -9.320062 -2.010410 -5.272600 13.684300 -41.987400 0.835876 3.362708 -3.921847 0.582915 1.668237 -9.496990 0.037489 4.640005 -5.487304 -1.890500 2.267600 1.364600 -81.098724 13.471549 37.380079 37.576920 -44.629064 -22.014197 -1.439769 0.466467 -6.093845 -7.125000 0.000000 0.000000 85.615809 -3.683003 31.089082 -50.789852 48.255377 -33.931462 2.590296 0.923440 -5.915597 7.125000 0.000000 0.000000 
6.504768 16.823442 42.804930 -176.689997 4.079762 -154.569691 -3.076048 0.911869 -43.093976 18.317753 20.823837 81.892319 2.426702 -4.851327 14.607326 0.370000 -3.906900 -10.814800 13.798440 -3.731688 -36.636834 -7.381209 -16.084433 51.229112 2.442054 -9.002092 -2.451646 -5.359000 13.777000 -42.351500 0.761365 4.027349 -3.882659 0.031343 2.008579 -9.364863 -0.108450 4.513270 -5.389178 -1.941700 2.206800 1.413300 -79.748726 15.545796 36.703356 33.598987 -42.678367 -19.112103 -1.502440 0.631824 -5.047033 -7.125000 0.000000 0.000000 85.257277 -1.232243 32.783394 -53.709579 49.187614 -36.601053 2.501641 0.913225 -5.449760 7.125000 0.000000 0.000000 
6.473300 16.779743 42.363162 -176.501823 5.005439 -154.882891 -2.845245 1.481905 -46.118049 18.976875 21.005937 83.622330 2.488521 -5.174657 12.915906 0.347100 -3.785600 -10.474200 13.375777 -3.547846 -34.587775 -7.020463 -15.752612 50.209455 2.234850 -8.696533 -2.745360 -5.442200 13.865100 -42.699600 0.672537 4.663366 -3.850592 -0.553044 2.337661 -9.205622 -0.247599 4.389302 -5.272336 -1.987500 2.146700 1.479600 -77.876094 18.234350 37.125540 31.080379 -41.520197 -17.431408 -1.517165 0.761821 -3.616551 -7.125000 0.000000 0.000000 85.039193 0.956689 34.409723 -57.707321 50.422620 -40.360347 2.407804 0.917786 -5.211950 7.125000 0.000000 0.000000 
